<svg id="Layer_1" data-name="Layer 1" xmlns="http://www.w3.org/2000/svg" viewBox="0 0 786.82 539.53"><defs><style>.cls-1{fill:#9bde7e;}.cls-2{fill:#3f3d56;}.cls-3{fill:#141718;}.cls-4{fill:#2f2e41;}.cls-5{fill:#fff;}.cls-6{fill:#ffb6b6;}.cls-7{fill:#e6e6e6;}.cls-8{isolation:isolate;opacity:0.2;}</style></defs><path class="cls-1" d="M665.45,497.15c39.69-30.23,58.64-81,46.77-129.48-.29-1.2-.6-2.41-.93-3.6-7.87-28.77-27.33-56.1-55.7-65.3-23.82-7.71-49.82-1.78-74.67-4.85-48.78-6-86.6-45.49-113.21-86.82s-47.06-87.58-82.42-121.72C327,29.1,231.93,17,159.66,53.62S41.36,171.52,43.33,252.51,93.37,411,163.2,452c25.66,15.09,55.32,25.79,84.85,22.05,25.62-3.25,48.9-17,74.4-21.1,40.09-6.43,79.93,11.7,114.6,32.82S505.22,532,544.63,541.75C582.89,551.26,630.29,523.93,665.45,497.15Z" transform="translate(0 -32.72)"/><path class="cls-2" d="M0,434.29a289,289,0,0,0,28.12,28.95l730.58,1a289,289,0,0,0,28.12-28.95Z" transform="translate(0 -32.72)"/><path class="cls-2" d="M495.43,341.59V427.3a4.11,4.11,0,0,0,4.12,4.11h127a4.11,4.11,0,0,0,4.12-4.11V341.59a4.11,4.11,0,0,0-4.12-4.11h-127A4.12,4.12,0,0,0,495.43,341.59Z" transform="translate(0 -32.72)"/><path class="cls-3" d="M498.41,342.66v83.58a2.21,2.21,0,0,0,2.2,2.2H625.5a2.21,2.21,0,0,0,2.2-2.2V342.66a2.21,2.21,0,0,0-2.2-2.21H500.61A2.2,2.2,0,0,0,498.41,342.66Z" transform="translate(0 -32.72)"/><path class="cls-4" d="M492.77,444a2.5,2.5,0,0,0,2,.93h136a2.5,2.5,0,0,0,2.5-2.51,2.94,2.94,0,0,0-.05-.51l-2.12-10a2.51,2.51,0,0,0-2.44-2H496.82a2.47,2.47,0,0,0-.89.17,2.52,2.52,0,0,0-1.56,1.82l-2.11,10A2.53,2.53,0,0,0,492.77,444Z" transform="translate(0 -32.72)"/><rect class="cls-2" x="623.44" y="398.99" width="4.19" height="2.51" rx="0.49"/><rect class="cls-2" x="615.07" y="398.99" width="4.19" height="2.51" rx="0.49"/><rect class="cls-2" x="606.69" y="398.99" width="4.19" height="2.51" rx="0.49"/><rect class="cls-2" x="598.31" y="398.99" width="4.19" height="2.51" rx="0.49"/><rect class="cls-2" x="589.94" y="398.99" width="4.19" height="2.51" rx="0.49"/><rect class="cls-2" x="581.56" y="398.99" width="4.19" height="2.51" rx="0.49"/><rect class="cls-2" x="573.18" y="398.99" width="4.19" height="2.51" rx="0.49"/><rect class="cls-2" x="564.8" y="398.99" width="4.19" height="2.51" rx="0.49"/><rect class="cls-2" x="556.43" y="398.99" width="4.19" height="2.51" rx="0.49"/><rect class="cls-2" x="548.05" y="398.99" width="4.19" height="2.51" rx="0.49"/><rect class="cls-2" x="539.67" y="398.99" width="4.19" height="2.51" rx="0.49"/><rect class="cls-2" x="531.3" y="398.99" width="4.19" height="2.51" rx="0.49"/><rect class="cls-2" x="522.92" y="398.99" width="4.19" height="2.51" rx="0.49"/><rect class="cls-2" x="514.54" y="398.99" width="4.19" height="2.51" rx="0.49"/><rect class="cls-2" x="506.17" y="398.99" width="4.19" height="2.51" rx="0.49"/><rect class="cls-2" x="497.79" y="398.99" width="4.19" height="2.51" rx="0.49"/><rect class="cls-2" x="623.54" y="403.18" width="4.19" height="2.51" rx="0.49"/><rect class="cls-2" x="615.17" y="403.18" width="4.19" height="2.51" rx="0.49"/><rect class="cls-2" x="606.79" y="403.18" width="4.19" height="2.51" rx="0.49"/><rect class="cls-2" x="598.41" y="403.18" width="4.19" height="2.51" rx="0.49"/><rect class="cls-2" x="590.03" y="403.18" width="4.19" height="2.51" rx="0.49"/><rect class="cls-2" x="581.66" y="403.18" width="4.19" height="2.51" rx="0.49"/><rect class="cls-2" x="573.28" y="403.18" width="4.19" height="2.51" rx="0.49"/><rect class="cls-2" x="564.9" y="403.18" width="4.19" height="2.51" rx="0.49"/><rect class="cls-2" x="556.53" y="403.18" width="4.19" height="2.51" rx="0.49"/><rect class="cls-2" x="548.15" y="403.18" width="4.19" height="2.51" rx="0.49"/><rect class="cls-2" x="539.77" y="403.18" width="4.19" height="2.51" rx="0.49"/><rect class="cls-2" x="531.4" y="403.18" width="4.19" height="2.51" rx="0.49"/><rect class="cls-2" x="523.02" y="403.18" width="4.19" height="2.51" rx="0.49"/><rect class="cls-2" x="514.64" y="403.18" width="4.19" height="2.51" rx="0.49"/><rect class="cls-2" x="506.26" y="403.18" width="4.19" height="2.51" rx="0.49"/><rect class="cls-2" x="497.89" y="403.18" width="4.19" height="2.51" rx="0.49"/><rect class="cls-2" x="554.01" y="408.21" width="33.51" height="2.51" rx="0.49"/><rect class="cls-5" x="515.63" y="326.01" width="5.97" height="3.12" rx="1.56"/><rect class="cls-5" x="548.15" y="326.01" width="5.97" height="3.12" rx="1.56"/><rect class="cls-5" x="557.37" y="326.01" width="5.97" height="3.12" rx="1.56"/><rect class="cls-5" x="524.48" y="325.75" width="20.8" height="3.12" rx="1.56"/><rect class="cls-5" x="567.84" y="325.75" width="20.8" height="3.12" rx="1.56"/><rect class="cls-5" x="524.3" y="333.06" width="5.97" height="3.12" rx="1.56"/><rect class="cls-5" x="556.83" y="333.06" width="5.97" height="3.12" rx="1.56"/><rect class="cls-5" x="566.04" y="333.06" width="5.97" height="3.12" rx="1.56"/><rect class="cls-5" x="533.15" y="332.8" width="20.8" height="3.12" rx="1.56"/><rect class="cls-5" x="576.51" y="332.8" width="20.8" height="3.12" rx="1.56"/><rect class="cls-5" x="532.98" y="340.11" width="5.97" height="3.12" rx="1.56"/><rect class="cls-5" x="565.5" y="340.11" width="5.97" height="3.12" rx="1.56"/><rect class="cls-5" x="574.71" y="340.11" width="5.97" height="3.12" rx="1.56"/><rect class="cls-5" x="541.82" y="339.85" width="20.8" height="3.12" rx="1.56"/><rect class="cls-5" x="585.19" y="339.85" width="20.8" height="3.12" rx="1.56"/><rect class="cls-5" x="541.65" y="347.15" width="5.97" height="3.12" rx="1.56"/><rect class="cls-5" x="574.17" y="347.15" width="5.97" height="3.12" rx="1.56"/><rect class="cls-5" x="583.39" y="347.15" width="5.97" height="3.12" rx="1.56"/><rect class="cls-5" x="550.5" y="346.89" width="20.8" height="3.12" rx="1.56"/><rect class="cls-5" x="548.15" y="375.17" width="5.97" height="3.12" rx="1.56"/><rect class="cls-5" x="557.37" y="375.17" width="5.97" height="3.12" rx="1.56"/><rect class="cls-5" x="567.84" y="375.43" width="20.8" height="3.12" rx="1.56"/><rect class="cls-5" x="515.63" y="375.17" width="5.97" height="3.12" rx="1.56"/><rect class="cls-5" x="524.48" y="375.43" width="20.8" height="3.12" rx="1.56"/><rect class="cls-5" x="524.3" y="368.13" width="5.97" height="3.12" rx="1.56"/><rect class="cls-5" x="556.83" y="368.13" width="5.97" height="3.12" rx="1.56"/><rect class="cls-5" x="566.04" y="368.13" width="5.97" height="3.12" rx="1.56"/><rect class="cls-5" x="533.15" y="368.39" width="20.8" height="3.12" rx="1.56"/><rect class="cls-5" x="532.98" y="361.08" width="5.97" height="3.12" rx="1.56"/><rect class="cls-5" x="565.5" y="361.08" width="5.97" height="3.12" rx="1.56"/><rect class="cls-5" x="574.71" y="361.08" width="5.97" height="3.12" rx="1.56"/><rect class="cls-5" x="541.82" y="361.34" width="20.8" height="3.12" rx="1.56"/><rect class="cls-5" x="541.65" y="354.03" width="5.97" height="3.12" rx="1.56"/><rect class="cls-5" x="574.17" y="354.03" width="5.97" height="3.12" rx="1.56"/><rect class="cls-5" x="583.39" y="354.03" width="5.97" height="3.12" rx="1.56"/><rect class="cls-5" x="550.5" y="354.29" width="20.8" height="3.12" rx="1.56"/><path class="cls-6" d="M504.92,490.48l-13.35-21.1,41.9-33.4,17.3-19.16a19.15,19.15,0,0,1,32.41,6.82h0a19.15,19.15,0,0,1-11.57,24l-27.35,10.08Z" transform="translate(0 -32.72)"/><path class="cls-4" d="M191.69,337.48V440h71.85V337.48a3.45,3.45,0,0,0-2.43-3.3,3.26,3.26,0,0,0-1-.16H195.16a3.46,3.46,0,0,0-3.47,3.46Zm28,35.24a7.67,7.67,0,0,1,15.34,0v11.9a7.67,7.67,0,0,1-15.34,0Z" transform="translate(0 -32.72)"/><path class="cls-2" d="M191.47,436.76v9.89a1.94,1.94,0,0,0,1.93,1.94h68.43a1.93,1.93,0,0,0,1.93-1.94v-9.89Z" transform="translate(0 -32.72)"/><path class="cls-2" d="M78.66,183V370.22a9,9,0,0,0,9,9h277.5a9,9,0,0,0,9-9V183a9,9,0,0,0-9-9H87.66A9,9,0,0,0,78.66,183Z" transform="translate(0 -32.72)"/><path class="cls-3" d="M85.17,185.29V367.91A4.81,4.81,0,0,0,90,372.72H362.85a4.81,4.81,0,0,0,4.81-4.81V185.29a4.82,4.82,0,0,0-4.81-4.82H90A4.82,4.82,0,0,0,85.17,185.29Z" transform="translate(0 -32.72)"/><path class="cls-4" d="M135.81,447.92a2.92,2.92,0,0,0,2.32,1.11H300.47a3,3,0,0,0,3-3,3.15,3.15,0,0,0-.06-.61l-2.52-12a3,3,0,0,0-2.92-2.37H140.64a3,3,0,0,0-2.92,2.37l-2.52,12A3,3,0,0,0,135.81,447.92Z" transform="translate(0 -32.72)"/><path class="cls-2" d="M354,205.63H98.67a1,1,0,0,1,0-2H354a1,1,0,0,1,0,2Z" transform="translate(0 -32.72)"/><ellipse class="cls-2" cx="116.05" cy="159.61" rx="5.95" ry="6.08"/><ellipse class="cls-2" cx="136.61" cy="159.61" rx="5.95" ry="6.08"/><ellipse class="cls-2" cx="157.16" cy="159.61" rx="5.95" ry="6.08"/><path class="cls-2" d="M341.62,187.75H327a1.11,1.11,0,0,0,0,2.21h14.6a1.11,1.11,0,0,0,0-2.21Z" transform="translate(0 -32.72)"/><path class="cls-2" d="M341.62,191.9H327a1.11,1.11,0,0,0,0,2.21h14.6a1.11,1.11,0,0,0,0-2.21Z" transform="translate(0 -32.72)"/><path class="cls-2" d="M341.62,196.05H327a1.11,1.11,0,0,0,0,2.21h14.6a1.11,1.11,0,0,0,0-2.21Z" transform="translate(0 -32.72)"/><path class="cls-4" d="M693.6,441.1a6.41,6.41,0,0,0,6.18,4.33l26.49-.68a6.32,6.32,0,0,0,6-4.66L736,400a9.83,9.83,0,0,0,4.24.87,9.66,9.66,0,0,0-.49-19.32,8.4,8.4,0,0,0-1.73.18,6.55,6.55,0,0,0-4.88-2.1l-40.75,1.05a4.81,4.81,0,0,0-1,.13,6.35,6.35,0,0,0-5.09,7.42,6.45,6.45,0,0,0,.21.84Zm43.17-43.82,2.67-9.55a6.53,6.53,0,0,0,0-3.37c.13,0,.24-.06.37-.06a6.91,6.91,0,0,1,.32,13.81A6.45,6.45,0,0,1,736.77,397.28Z" transform="translate(0 -32.72)"/><path class="cls-2" d="M691.39,380.82c.87,5,10.63,8.45,22.36,7.84,10.8-.49,19.62-4.28,21.24-8.78a6.07,6.07,0,0,0-1.85-.24l-40.75,1.05A4.81,4.81,0,0,0,691.39,380.82Z" transform="translate(0 -32.72)"/><path class="cls-1" d="M715.9,419.07a.44.44,0,0,0,.16-.06l5.75-3.77a.5.5,0,0,0,.15-.69.54.54,0,0,0-.15-.15l-6-3.91a.5.5,0,1,0-.55.83l5.34,3.5-5.11,3.35a.5.5,0,0,0-.15.69.49.49,0,0,0,.54.21Z" transform="translate(0 -32.72)"/><path class="cls-1" d="M706.82,419.49a.5.5,0,0,0,.12-.92l-5.3-3,5.13-3.8a.5.5,0,0,0-.6-.81l-5.74,4.27a.5.5,0,0,0-.1.7.47.47,0,0,0,.15.13l6,3.42A.48.48,0,0,0,706.82,419.49Z" transform="translate(0 -32.72)"/><path class="cls-1" d="M715.33,422.37l.14-.05a.51.51,0,0,0,.17-.69h0l-8.16-13.41a.5.5,0,1,0-.85.52l8.15,13.41A.49.49,0,0,0,715.33,422.37Z" transform="translate(0 -32.72)"/><rect class="cls-1" x="209.38" y="228.1" width="50.72" height="10.85" rx="3.26"/><rect class="cls-7" x="183.63" y="249.79" width="102.24" height="10.85" rx="3.26"/><rect class="cls-7" x="183.63" y="271.49" width="102.24" height="10.85" rx="3.26"/><path class="cls-2" d="M290.71,376.85l.22.68v0l6.52,19.84L305,420.25l14.12,43,.14,6.68v0l1,53.68-2.91,7.28,3.27,11.93s-1.5-18-9.58-7.67c-4.57,5.88-9.92,11.91-14.31,17.55q9.6,3.89,19.5,7c1.43.46,2.87.89,4.3,1.32l.93.28a266.93,266.93,0,0,0,67.35,10.82c1.18,0,2.35.06,3.48.08l1.17,0,3.82,0q3.87,0,7.7-.12a266.71,266.71,0,0,0,56.1-7.58c-.13-7.59-.47-16.45-1-25.92-.23-4.64-5.35-9.67-5.66-14.53-.22-3.65,4.38-7.09,4.14-10.8-1.55-22.82-3.49-14.06-4.93-30.22-.15-1.59-.28-3.11-.41-4.56-.92-10.38-1.56-16.87-1.56-16.87L457.86,423l9.64-60.74-.75-1.22-.83-.41-50.84-25.16-2.76-7.08a11,11,0,0,0-10.14-6.94l-33.5-.14a10.93,10.93,0,0,0-8.91,4.53l-9.07,12.56Z" transform="translate(0 -32.72)"/><path class="cls-2" d="M326.82,453.65l-7.59,16.24L314.05,481l-8.91,46.64-4.46,4.74-3.82-16.76-40,8.88c-1.31-7.29-.35.24-1.16-7.75l.71-.69c.64-.59,1.17-1.15,1.16-1.69-.45-27.58.91-74.52,12.35-103a60.13,60.13,0,0,1,7-13.11c.23-.31.45-.62.66-.92,5.27-7.38,8.61-14.65,13.33-19.82h0l.08-.08,0,0,32.45-17.21,1.39,39.11,1,28.11Z" transform="translate(0 -32.72)"/><path class="cls-2" d="M443.8,458.26l9.48,20.28,3.3,7.06,8.91,46.64,4.45,4.72,3.83-16.75,1.8-.37L508,513.12l9.46,30a18,18,0,0,0-3.26-22.5c-.65-.59-1.19-1.16-1.17-1.69.53-32.45-1.45-91.69-19.37-116.07-5.69-7.74-9.11-15.44-14.08-20.83,0,0,0,0,0,0l-12.09-19.8-.74-1.21-.83-.42Z" transform="translate(0 -32.72)"/><circle id="a657ec4b-47ce-4d2a-9c58-81a811696ca9" class="cls-6" cx="386.4" cy="234.48" r="44.56"/><path class="cls-4" d="M446.62,236.08a3.73,3.73,0,0,0-2.69-1.19l.67-1.86a3.52,3.52,0,0,0-2.07-4.54,3.48,3.48,0,0,0-1.89-.16l-2.44.47.23-1.63a3.53,3.53,0,0,0-4.73-3.82,3.8,3.8,0,0,1-3.24-.23,3.88,3.88,0,0,1-1.92-2.61l-.85-4.1-.09-.22c-4.14-6.9-12.1-11.92-21.84-13.76-8.67-1.65-17.56-.81-26.13,0-3.4.32-7.24.68-10.44,2.64-2.72,1.68-5,5-4.55,8.43-8.45-2.59-17.51,2.58-22,9.1-5.32,7.76-6.19,17.48-6.33,25.08-.38,18,3.33,32.69,11,43.73.56.8.7,2.47,1.81,3l-.23-.37c1.24.62,2.5,1.62,2,2.69-1.35,3.08,7.62,9.89,13.94,12.14,11.53,4.11,26.86,3.76,37.64,2.28l.38-2.55c3.89-.53,6.63-1.54,7.4-3.12,1.36-1.16,2.52-2.2,3.53-3.16h0l.08-.07c4.87-4.67,6-7.33,6.51-11.38s-.38-8-1.27-11.63c18.74,2.9-7.38-20,10.08-24.38a4.52,4.52,0,0,1,.61-.15c.51-.12,1-.24,1.51-.38a26.45,26.45,0,0,0,6.72-2.87c4.88-3,6.49-6.91,9-11.35A3.41,3.41,0,0,0,446.62,236.08Z" transform="translate(0 -32.72)"/><path class="cls-4" d="M544,461.44c0,1.75,0,4.2-.11,7.23q0,.63,0,1.29c-.13,5.57-.26,10.24-.47,15.43,0,.36,0,.71,0,1.07-.28,7.24-.72,15.67-1.48,29-1.41,24.66-3.87,3.39-6.34,12-.12.43-.25.94-.37,1.54a27.59,27.59,0,0,1-1.88,6.33c-1.31.78-2.66,1.53-4,2.28-3.79,2.11-7.64,4.14-11.52,6.07-2.18,1.08-4.37,2.14-6.57,3.16l-1,.47a270.53,270.53,0,0,1-34.75,13.26c-2.32.7-4.63,1.38-7,2s-4.88,1.32-7.35,1.92A267.2,267.2,0,0,1,405,572.15c-2.55.08-5.12.11-7.7.11l-3.82,0-1.17,0-3.48-.08a267,267,0,0,1-67.35-10.83l-.93-.27c-1.44-.44-2.87-.87-4.3-1.33q-9.9-3.13-19.51-7-7.33-3-14.5-6.34l-.12-.06c-1-.46-2-.94-3-1.43l-.41-.21q-5.59-2.73-11.07-5.72c-3.07-7-7.39-8.4-10.07-14.6a26.23,26.23,0,0,1-1.68-5.74s0,0,0-.07c.28,3.72-1.19-6.6,0,0,0-.12,0-.25,0-.4,0-.36-.07-.8-.13-1.35-3.43-33.49-3.21-71.79-4.7-103.35-.1-2-.2-4-.31-5.86,0-.62-.07-1.23-.11-1.83.07-.18.15-.37.24-.55a.52.52,0,0,1,.07-.15,1.45,1.45,0,0,1,.1-.18l.07-.1a.93.93,0,0,1,.05-.1c.09-.14.19-.29.3-.43l.14-.16.12-.14a.47.47,0,0,1,.11-.13l.13-.14.08-.08a2,2,0,0,1,.26-.25,9.8,9.8,0,0,1,1.14-.9l.43-.28a18.83,18.83,0,0,1,3.17-1.52l1.17-.41.44-.14c.22-.07.44-.14.67-.19,1.14-.34,2.37-.63,3.7-.9l.5-.1.74-.13,1-.18c3-.47,6.34-.82,10.06-1l1.05-.06,1.24-.06,1.07,0,1.08,0,3.11-.08c3-.06,6.2,0,9.54,0,1.55,0,3.13.08,4.75.15h.31c1.41.05,2.83.11,4.29.19l3.08.16,2.94.19,2.32.15,2,.14.9.06,1.48.12,3.32.27,3.37.3,3.41.32.34,0,3.13.32.73.07,3,.32.93.1c.8.09,1.58.16,2.37.26,1.05.12,2.12.23,3.16.37l2.43.28,3.85.48,1.47.19c3.68.46,7.4,1,11.18,1.5,5.73.81,11.55,1.69,17.41,2.64s11.78,1.95,17.71,3l4.51.82,2,.39,3.48.65,3.48.67,4.15.81c9.09,1.8,18.13,3.72,26.95,5.73l4.34,1c2.88.67,5.74,1.35,8.56,2l2.32.56c1.92.48,3.84,1,5.73,1.45l.33.09c1.39.34,2.75.69,4.11,1.05q4.81,1.26,9.47,2.55c2.06.57,4.1,1.14,6.11,1.73,3,.87,6,1.75,8.83,2.64l2.12.65c2.1.65,4.17,1.31,6.18,2,1.6.52,3.16,1,4.7,1.58s3.05,1.06,4.53,1.59l2.83,1c1.35.5,2.68,1,4,1.5l1.18.46.73.3,1.41.56c.47.18.93.37,1.39.57l1.35.56c.45.18.89.37,1.33.57s.73.31,1.08.47c.71.31,1.42.62,2.11.94l1,.47.78.36.33.16.76.37c.58.27,1.15.56,1.71.83l2.18,1.13,2.06,1.13.32.18.45.25c.51.29,1,.59,1.49.88,1,.59,1.87,1.17,2.72,1.75l.56.38c.63.45,1.23.89,1.79,1.34,0,0,0,0,0,0l.55.43.46.4c.52.45,1,.88,1.44,1.32a4.26,4.26,0,0,1,.42.43l.16.16c.2.2.38.4.55.6a.22.22,0,0,1,.07.09c.24.28.46.56.67.84s.21.28.3.42.24.35.34.52.17.29.25.43a7.81,7.81,0,0,1,.54,1.13,5.62,5.62,0,0,1,.27.82A5.29,5.29,0,0,1,544,461.44Z" transform="translate(0 -32.72)"/><path class="cls-8" d="M544,461.44c0,1.75,0,4.2-.11,7.23,0,.42,0,.85,0,1.29-.1,4.25-.25,9.5-.46,15.43,0,.36,0,.71,0,1.07-.28,7.24-.72,15.67-1.48,29-1.41,24.66-3.87,3.39-6.34,12-6.86-4.22-14.38-8.64-22.42-13.18-1.45-.82-2.91-1.65-4.39-2.47-16.08-9-34-18.37-52.79-27.68l-2.23-1.1c-42.95-21.23-89.83-41.88-127.81-55.66-7.33-2.66-14.33-5.06-20.91-7.17-13.86-4.43-25.84-7.53-35.06-8.87-9.6-1.4-16.23-.9-18.91,2-.1-2-.2-4-.31-5.86q-.06-.93-.12-1.83a4.16,4.16,0,0,1,.22-.48l0-.07a.52.52,0,0,1,.07-.15,1.45,1.45,0,0,1,.1-.18,1.32,1.32,0,0,1,.12-.2c.09-.14.19-.29.3-.43a2.55,2.55,0,0,1,.26-.3.47.47,0,0,1,.11-.13l.13-.14.08-.08a2,2,0,0,1,.26-.25,9.8,9.8,0,0,1,1.14-.9l.43-.28a18.83,18.83,0,0,1,3.17-1.52l1.17-.41.44-.14c.22-.07.44-.14.67-.19,1.14-.34,2.37-.63,3.7-.9l1.24-.23,1-.18c3-.47,6.34-.82,10.06-1l1.05-.06,1.24-.06,1.07,0,1.08,0,3.11-.08c3-.05,6.2,0,9.54,0,1.55,0,3.13.08,4.75.15h.31c1.41,0,2.84.11,4.29.18l3.08.16,2.94.19,2.32.15,2,.14,2.38.18,3.32.27,3.37.3,3.41.32.34,0,3.13.32q8.73.89,18,2.07,5.52.71,11.18,1.51c5.73.81,11.55,1.69,17.41,2.63s11.78,1.95,17.71,3l4.51.82c1.84.34,3.68.68,5.52,1l3.48.67,4.15.81c9.09,1.8,18.13,3.72,26.95,5.73l4.34,1c2.88.67,5.74,1.35,8.56,2l2.32.57,5.73,1.44h0l.33.08,4.11,1.06q4.81,1.26,9.47,2.54c2.06.58,4.1,1.15,6.11,1.73,3,.88,6,1.76,8.83,2.64l2.12.65c2.1.66,4.16,1.31,6.18,2,1.6.52,3.16,1,4.7,1.58s3.05,1.06,4.53,1.59l2.83,1c1.36.5,2.68,1,4,1.51l1.18.46c.73.28,1.44.57,2.14.86.47.18.93.37,1.39.57l1.35.56c.45.18.89.37,1.33.57s.73.31,1.08.47c.71.31,1.42.62,2.11.94l1,.47.78.36.33.16c.85.4,1.67.8,2.47,1.2l2.18,1.13c.83.44,1.62.87,2.38,1.31l.45.25c.51.29,1,.59,1.49.88,1,.59,1.87,1.17,2.72,1.75s1.62,1.15,2.35,1.72c0,0,0,0,0,0l1,.83c.52.45,1,.88,1.44,1.32a4.26,4.26,0,0,1,.42.43.81.81,0,0,1,.16.16l.62.69c.24.28.46.56.67.84s.21.28.3.42.24.35.34.52.17.29.25.43a6.89,6.89,0,0,1,.54,1.13,5.62,5.62,0,0,1,.27.82A5.29,5.29,0,0,1,544,461.44Z" transform="translate(0 -32.72)"/></svg>